<svg width="97" height="114" viewBox="0 0 97 114" fill="none" xmlns="http://www.w3.org/2000/svg">
<path d="M58.181 64.425C57.0924 64.6438 56.0348 65.0772 55.0739 65.698C52.5701 67.274 51.1307 69.5861 51.8591 70.862C52.5875 72.1378 55.2077 71.8937 57.7115 70.3178C58.6857 69.7203 59.5481 68.9456 60.2456 68.0413C60.5691 67.604 60.6212 67.0489 60.3788 66.6257L59.4326 64.9683C59.1918 64.5438 58.7006 64.3309 58.181 64.425Z" fill="#D5D6DB"/>
<path d="M51.8606 42.5363C51.0713 42.6951 50.3044 43.0095 49.6076 43.4597C47.7925 44.6022 46.7481 46.2787 47.2758 47.203C47.8036 48.1273 49.7042 47.9502 51.5191 46.8079C52.2255 46.3744 52.8508 45.8123 53.3567 45.1566C53.5909 44.8396 53.6286 44.4374 53.4529 44.1306L52.7678 42.9305C52.5934 42.6228 52.2375 42.4681 51.8606 42.5363Z" fill="#D5D6DB"/>
<path d="M41.5663 43.1948C41.3899 43.1694 41.2027 43.2121 41.0411 43.314L36.779 45.9953C36.4225 46.2189 36.2842 46.6655 36.4705 46.993C36.5131 47.068 36.571 47.1328 36.6409 47.1834L47.3242 54.9767L61.5362 46.0358L41.5663 43.1948Z" fill="#029BC5"/>
<path d="M86.8873 42.8955L47.9995 67.3953L24.9239 76.3046L13.1256 78.3989L11.7961 76.0613L76.6262 36.0461C78.5582 34.8482 80.7181 34.1419 82.8876 33.9987C83.8377 33.9413 84.7774 34.002 85.6848 34.179C86.4893 34.3294 87.254 34.5961 87.956 34.9713C88.7395 35.3961 90.2221 35.4863 90.7119 36.3008C90.7135 36.2996 91.891 40.0073 86.8873 42.8955Z" fill="#E1E6E9"/>
<path d="M48.3264 63.6319L31.7452 90.9998C31.5386 91.3851 31.6695 91.8271 32.0372 91.9871C32.2629 92.0854 32.5373 92.0572 32.7663 91.9125L37.0394 89.2169C37.8613 88.6982 38.5864 88.0299 39.1701 87.2535L71.5011 48.3657L48.3264 63.6319Z" fill="#029BC5"/>
<path d="M5.83344 62.8024C5.5514 62.6961 5.21784 62.7372 4.93802 62.9126L1.42457 65.1146C0.945839 65.4144 0.761019 66.0123 1.01162 66.4502C1.05937 66.5335 1.12096 66.6073 1.19446 66.6688L11.2195 75.082L21.571 68.7261L5.83344 62.8024Z" fill="#029BC5"/>
<path d="M14.4251 76.3758L9.14879 83.9969C9.07141 84.1064 9.09167 84.2473 9.19399 84.3114C9.26778 84.3576 9.3677 84.3527 9.44829 84.2987L12.7506 82.2156C12.7763 82.1994 12.7994 82.1788 12.8185 82.1552L20.5464 72.5181L14.4251 76.3758Z" fill="#029BC5"/>
<path d="M85.1329 34.3799C84.2023 34.1993 83.2384 34.1383 82.2637 34.1978C81.3306 35.535 80.7425 37.0507 80.5578 38.5936C80.5467 38.9043 80.7935 39.1354 81.1092 39.1099C81.2073 39.1018 81.3046 39.0692 81.3918 39.0149L87.4626 35.1893C86.7425 34.8057 85.9581 34.5331 85.1329 34.3799Z" fill="#029BC5"/>
<path d="M71.8335 41.4614L75.7654 39.0309L79.5372 45.5248L75.6052 47.9553L71.8335 41.4614Z" fill="#D5D6DB"/>
<path d="M69.3123 44.0738C68.8381 44.3678 68.6547 44.9554 68.9032 45.3863L69.3057 46.0842C69.57 46.5048 70.1618 46.5956 70.6277 46.2871C71.071 45.9933 71.2438 45.4396 71.0227 45.0199L70.6202 44.3219C70.3719 43.8915 69.7866 43.7803 69.3123 44.0738Z" fill="#3A556A"/>
<path d="M65.7274 46.3219C65.2531 46.6159 65.0698 47.2035 65.3182 47.6344L65.7208 48.3323C65.985 48.7529 66.5768 48.8437 67.0427 48.5352C67.4861 48.2414 67.6588 47.6877 67.4377 47.268L67.0352 46.57C66.7867 46.1397 66.2014 46.0285 65.7274 46.3219Z" fill="#3A556A"/>
<path d="M62.1412 48.5707C61.6674 48.8651 61.4848 49.4521 61.733 49.8825L62.1356 50.5805C62.3998 51.001 62.9916 51.0918 63.4575 50.7833C63.9008 50.4895 64.0736 49.9358 63.8525 49.5162L63.45 48.8182C63.2015 48.3874 62.6156 48.2766 62.1412 48.5707Z" fill="#3A556A"/>
<path d="M58.5565 50.8187C58.0827 51.1131 57.9001 51.7001 58.1483 52.1306L58.5509 52.8286C58.8151 53.2491 59.4069 53.3399 59.8728 53.0314C60.3161 52.7376 60.4889 52.1839 60.2678 51.7642L59.8653 51.0663C59.6166 50.6356 59.0307 50.5247 58.5565 50.8187Z" fill="#3A556A"/>
<path d="M54.9717 53.0669C54.4977 53.3614 54.315 53.9485 54.5633 54.3791L54.9661 55.0772C55.2143 55.5076 55.7999 55.6183 56.274 55.3245C56.7481 55.0307 56.9312 54.4437 56.6829 54.0133L56.2802 53.3151C56.0325 52.8844 55.4471 52.773 54.9727 53.0663C54.9723 53.0665 54.9721 53.0667 54.9717 53.0669Z" fill="#3A556A"/>
<path d="M51.387 55.315C50.913 55.6095 50.7302 56.1966 50.9786 56.6272L51.3814 57.3253C51.6296 57.7557 52.2152 57.8664 52.6893 57.5726C53.1634 57.2788 53.3464 56.6918 53.0982 56.2614L52.6954 55.5632C52.4478 55.1325 51.8624 55.0211 51.388 55.3144C51.3876 55.3146 51.3872 55.3149 51.387 55.315Z" fill="#3A556A"/>
<path d="M47.8018 57.5632C47.3278 57.8577 47.145 58.4448 47.3934 58.8753L47.7961 59.5735C48.045 60.0035 48.6309 60.1133 49.1044 59.819C49.5772 59.5253 49.7599 58.9395 49.5127 58.5097L49.11 57.8115C48.8618 57.3808 48.2762 57.2696 47.8018 57.5632Z" fill="#3A556A"/>
<path d="M44.2168 59.8113C43.7428 60.1058 43.5601 60.6929 43.8084 61.1235L44.2112 61.8216C44.46 62.2516 45.0459 62.3614 45.5195 62.0672C45.9922 61.7735 46.1749 61.1876 45.9278 60.7578L45.525 60.0596C45.2769 59.6289 44.6913 59.5177 44.2168 59.8113Z" fill="#3A556A"/>
<path d="M40.6318 62.0593C40.1579 62.3538 39.9751 62.9409 40.2235 63.3715L40.6262 64.0696C40.8751 64.4996 41.4609 64.6094 41.9345 64.3152C42.4073 64.0215 42.5899 63.4357 42.3428 63.0058L41.9401 62.3077C41.6917 61.8771 41.1061 61.7659 40.6318 62.0593Z" fill="#3A556A"/>
<path d="M37.0459 64.3081C36.5718 64.6019 36.3888 65.189 36.637 65.6194L36.6375 65.6203L37.0403 66.3184C37.2891 66.7485 37.875 66.8583 38.3486 66.564C38.8213 66.2703 39.004 65.6845 38.7569 65.2546L38.3541 64.5564C38.106 64.1257 37.5204 64.0145 37.0459 64.3081Z" fill="#3A556A"/>
<path d="M33.4619 66.5556C32.9878 66.8494 32.8048 67.4364 33.053 67.8668L33.0536 67.8677L33.4563 68.5658C33.7052 68.9958 34.291 69.1056 34.7646 68.8114C35.2374 68.5177 35.4201 67.9319 35.1729 67.502L34.7702 66.8039C34.5218 66.3733 33.9362 66.2621 33.4619 66.5556Z" fill="#3A556A"/>
</svg>
