<svg width="49" height="51" viewBox="0 0 49 51" fill="none" xmlns="http://www.w3.org/2000/svg">
<path d="M17.1412 36.9075L15.7656 36.249L7.59351 48.3321H16.7137L17.5926 47.7591V37.3211L17.1412 36.9075Z" fill="#407093"/>
<path d="M15.8899 36.3086L12.797 34.8279H12.2141L3.46851 47.759L3.98916 48.3321H7.75807L15.8899 36.3086Z" fill="#365E7D"/>
<path d="M19.2343 47.759H7.17462C6.62677 47.759 6.18262 48.203 6.18262 48.751V50.008C6.18262 50.5558 6.62667 50.9999 7.17443 51H19.2343C19.7821 51 20.2263 50.5559 20.2263 50.008V48.751C20.2263 48.203 19.7821 47.759 19.2343 47.759Z" fill="#4A80AA"/>
<path d="M6.38793 50.008V48.751C6.38793 48.2031 6.83209 47.759 7.37994 47.759H0.992007C0.444157 47.759 0 48.203 0 48.751V50.008C0 50.5559 0.444157 51 0.992007 51H7.37984C6.83199 51 6.38793 50.5559 6.38793 50.008Z" fill="#407093"/>
<path d="M15.4748 29.1302C15.1036 29.896 14.8938 30.7547 14.8938 31.663C14.8938 34.1452 16.4481 36.2626 18.6357 37.1002C19.5749 36.8059 20.4095 36.2751 21.0687 35.5763V34.3079L15.4748 29.1302Z" fill="#4A80AA"/>
<path d="M14.9917 31.6829C14.9917 30.7956 15.1969 29.9569 15.5602 29.2091L13.7721 27.554H13.0465C11.9493 28.5891 11.2634 30.0554 11.2634 31.6828C11.2634 34.8179 13.8049 37.3593 16.94 37.3593C17.593 37.3593 18.2192 37.2473 18.8029 37.0442C16.5844 36.2724 14.9917 34.1643 14.9917 31.6829Z" fill="#407093"/>
<path d="M47.9487 0.673706C47.0504 -0.224569 45.594 -0.224569 44.6958 0.673706L42.5007 2.86879V3.147L45.2405 6.00309L45.7536 6.12163L47.9486 3.92654C48.8469 3.02836 48.8469 1.57198 47.9487 0.673706Z" fill="#FFD086"/>
<path d="M48.5555 1.75945C48.4596 1.36181 48.259 0.984188 47.9487 0.673706C47.0504 -0.224569 45.594 -0.224569 44.6958 0.673706L42.5007 2.86879V3.147L43.9533 4.66126C44.8193 3.76009 45.6792 2.87078 46.1213 2.42862C46.8584 1.69161 47.935 1.68593 48.5555 1.75945Z" fill="#FFC365"/>
<path d="M40.4339 6.52093C40.4087 6.52093 40.3832 6.51963 40.3576 6.51714L14.9914 4.02034C14.5683 3.9787 14.2592 3.60208 14.3009 3.17904C14.3425 2.756 14.7193 2.44711 15.1422 2.48845L40.5084 4.98515C40.9314 5.02679 41.2406 5.40341 41.1989 5.82645C41.1598 6.22399 40.825 6.52093 40.4339 6.52093Z" fill="#365E7D"/>
<path d="M22.3279 11.2696C21.9865 11.2696 21.6746 11.0407 21.584 10.6951C21.4761 10.2839 21.722 9.86313 22.1331 9.75526L40.2382 5.00639C40.6493 4.89872 41.0701 5.14445 41.1779 5.55564C41.2858 5.96672 41.0399 6.38747 40.6287 6.49535L22.5237 11.2442C22.4581 11.2613 22.3924 11.2696 22.3279 11.2696Z" fill="#407093"/>
<path d="M45.3511 34.342C44.9598 34.342 44.625 34.0448 44.586 33.6471L42.1048 8.26533C42.0634 7.84239 42.3728 7.46586 42.7959 7.42443C43.2189 7.38498 43.5953 7.69257 43.6367 8.11561L46.1179 33.4974C46.1593 33.9203 45.8499 34.2969 45.4268 34.3383C45.4014 34.3407 45.3761 34.342 45.3511 34.342Z" fill="#365E7D"/>
<path d="M38.0498 27.1375C37.9846 27.1375 37.9182 27.129 37.8521 27.1116C37.4412 27.0026 37.1965 26.5812 37.3055 26.1704L42.1242 7.99538C42.2331 7.58439 42.6544 7.34005 43.0653 7.44863C43.4762 7.5576 43.721 7.97895 43.612 8.38983L38.7932 26.5648C38.7019 26.9097 38.3904 27.1375 38.0498 27.1375Z" fill="#407093"/>
<path d="M40.2949 5.07397L42.4956 2.8733L45.7479 6.12569L43.5473 8.32636L40.2949 5.07397Z" fill="#FFC365"/>
<path d="M41.9663 6.7362C42.4952 6.18237 43.3211 5.31856 44.12 4.48802L42.5009 2.86877L40.2998 5.06974L41.9663 6.7362Z" fill="#FFA90F"/>
<path d="M44.0428 9.58209C43.8459 9.58209 43.6489 9.50689 43.4987 9.35667L39.266 5.12409C38.9654 4.82347 38.9654 4.33628 39.266 4.03556C39.5665 3.73514 40.0538 3.73514 40.3544 4.03556L44.5871 8.26815C44.8877 8.56877 44.8877 9.05595 44.5871 9.35667C44.4368 9.50698 44.2399 9.58209 44.0428 9.58209Z" fill="#4A80AA"/>
<path d="M44.5393 35.7274L18.7692 9.7337C15.3526 17.4468 14.7593 25.7268 17.3171 32.8669C24.381 39.2389 34.9331 40.2174 44.6473 36.2119L44.5393 35.7274Z" fill="#B5DCFF"/>
<path d="M18.9065 9.87215L13.0021 3.91663L12.4105 3.975C8.25059 14.0637 9.46522 25.0569 16.5154 32.107C16.9424 32.534 17.3842 32.9392 17.8392 33.3236C14.8672 26.192 15.3502 17.7099 18.9065 9.87215Z" fill="#8BCAFF"/>
<path d="M46.8945 33.8798L20.758 7.74341C20.5009 7.78305 20.2532 7.89999 20.0552 8.09802L18.9184 9.23495C18.6742 9.4791 18.5528 9.79794 18.5493 10.118L44.6029 36.1714C44.9902 36.5588 45.6183 36.5588 46.0057 36.1714L46.8946 35.2826C47.2819 34.8953 47.2819 34.2672 46.8945 33.8798Z" fill="#DBEDFF"/>
<path d="M18.9578 9.25436L20.071 8.14123C20.276 7.93623 20.5349 7.81889 20.802 7.78712L14.743 1.7281C14.3556 1.34072 13.7276 1.34072 13.3401 1.7281L12.4512 2.61701C12.0638 3.00439 12.0638 3.63242 12.4512 4.0198L18.5954 10.164C18.5873 9.83568 18.7073 9.50488 18.9578 9.25436Z" fill="#B5DCFF"/>
</svg>
